<svg width="173" height="32" viewBox="0 0 173 32" fill="none" xmlns="http://www.w3.org/2000/svg">
<g id="Group 23575">
<path id="Star 1" d="M14.2937 3.6338C14.6102 2.72306 15.8982 2.72307 16.2148 3.63381L18.6084 10.5198C18.748 10.9216 19.123 11.194 19.5482 11.2026L26.8369 11.3512C27.8008 11.3708 28.1989 12.5958 27.4305 13.1783L21.6212 17.5826C21.2823 17.8396 21.139 18.2803 21.2622 18.6875L23.3733 25.6652C23.6525 26.5881 22.6104 27.3452 21.819 26.7945L15.8351 22.6305C15.486 22.3875 15.0225 22.3875 14.6734 22.6305L8.68945 26.7945C7.89802 27.3452 6.85601 26.5881 7.13521 25.6652L9.24626 18.6875C9.36943 18.2803 9.22621 17.8396 8.88727 17.5826L3.07795 13.1783C2.30961 12.5958 2.70763 11.3708 3.67162 11.3512L10.9602 11.2026C11.3855 11.194 11.7604 10.9216 11.9001 10.5198L14.2937 3.6338Z" fill="#3BA1C9"/>
<path id="Star 3" d="M85.4802 3.6338C85.7968 2.72306 87.0848 2.72307 87.4013 3.63381L89.7949 10.5198C89.9346 10.9216 90.3095 11.194 90.7348 11.2026L98.0234 11.3512C98.9874 11.3708 99.3854 12.5958 98.617 13.1783L92.8077 17.5826C92.4688 17.8396 92.3256 18.2803 92.4487 18.6875L94.5598 25.6652C94.839 26.5881 93.797 27.3452 93.0055 26.7945L87.0216 22.6305C86.6725 22.3875 86.209 22.3875 85.8599 22.6305L79.876 26.7945C79.0845 27.3452 78.0425 26.5881 78.3217 25.6652L80.4328 18.6875C80.556 18.2803 80.4127 17.8396 80.0738 17.5826L74.2645 13.1783C73.4961 12.5958 73.8942 11.3708 74.8581 11.3512L82.1468 11.2026C82.572 11.194 82.947 10.9216 83.0866 10.5198L85.4802 3.6338Z" fill="#3BA1C9"/>
<path id="Star 2" d="M49.8874 3.6338C50.204 2.72306 51.492 2.72307 51.8086 3.63381L54.2021 10.5198C54.3418 10.9216 54.7167 11.194 55.142 11.2026L62.4306 11.3512C63.3946 11.3708 63.7926 12.5958 63.0243 13.1783L57.215 17.5826C56.876 17.8396 56.7328 18.2803 56.856 18.6875L58.967 25.6652C59.2462 26.5881 58.2042 27.3452 57.4128 26.7945L51.4288 22.6305C51.0797 22.3875 50.6163 22.3875 50.2671 22.6305L44.2832 26.7945C43.4918 27.3452 42.4498 26.5881 42.729 25.6652L44.84 18.6875C44.9632 18.2803 44.82 17.8396 44.481 17.5826L38.6717 13.1783C37.9034 12.5958 38.3014 11.3708 39.2654 11.3512L46.554 11.2026C46.9792 11.194 47.3542 10.9216 47.4938 10.5198L49.8874 3.6338Z" fill="#3BA1C9"/>
<path id="Star 4" d="M121.074 3.6338C121.391 2.72306 122.679 2.72307 122.995 3.63381L125.389 10.5198C125.528 10.9216 125.903 11.194 126.329 11.2026L133.617 11.3512C134.581 11.3708 134.979 12.5958 134.211 13.1783L128.401 17.5826C128.063 17.8396 127.919 18.2803 128.042 18.6875L130.154 25.6652C130.433 26.5881 129.391 27.3452 128.599 26.7945L122.615 22.6305C122.266 22.3875 121.803 22.3875 121.454 22.6305L115.47 26.7945C114.678 27.3452 113.636 26.5881 113.915 25.6652L116.027 18.6875C116.15 18.2803 116.006 17.8396 115.668 17.5826L109.858 13.1783C109.09 12.5958 109.488 11.3708 110.452 11.3512L117.741 11.2026C118.166 11.194 118.541 10.9216 118.68 10.5198L121.074 3.6338Z" fill="#3BA1C9"/>
<path id="Star 5" d="M156.667 3.6338C156.983 2.72306 158.271 2.72307 158.588 3.63381L160.981 10.5198C161.121 10.9216 161.496 11.194 161.921 11.2026L169.21 11.3512C170.174 11.3708 170.572 12.5958 169.804 13.1783L163.994 17.5826C163.655 17.8396 163.512 18.2803 163.635 18.6875L165.746 25.6652C166.026 26.5881 164.983 27.3452 164.192 26.7945L158.208 22.6305C157.859 22.3875 157.396 22.3875 157.046 22.6305L151.062 26.7945C150.271 27.3452 149.229 26.5881 149.508 25.6652L151.619 18.6875C151.742 18.2803 151.599 17.8396 151.26 17.5826L145.451 13.1783C144.683 12.5958 145.081 11.3708 146.045 11.3512L153.333 11.2026C153.759 11.194 154.133 10.9216 154.273 10.5198L156.667 3.6338Z" fill="#3BA1C9"/>
</g>
</svg>
