<svg width="146" height="26" viewBox="0 0 146 26" fill="none" xmlns="http://www.w3.org/2000/svg">
<g id="Group 23575">
<path id="Star 1" d="M12.0167 2.31115C12.2836 1.54708 13.3641 1.54708 13.631 2.31115L15.643 8.07265C15.7608 8.40983 16.0757 8.63829 16.4328 8.64553L22.5517 8.76964C23.3631 8.7861 23.6972 9.81796 23.0493 10.3068L18.179 13.982C17.8927 14.1981 17.7717 14.5699 17.876 14.9131L19.6473 20.7405C19.8829 21.5156 19.0085 22.1532 18.3425 21.6919L13.3106 18.2068C13.0178 18.0039 12.6299 18.0039 12.3371 18.2068L7.30516 21.6919C6.63913 22.1532 5.7648 21.5156 6.00042 20.7405L7.77169 14.9131C7.87601 14.5699 7.755 14.1981 7.46869 13.982L2.59834 10.3068C1.95052 9.81796 2.28456 8.7861 3.09597 8.76964L9.21485 8.64553C9.57193 8.63829 9.88687 8.40984 10.0046 8.07265L12.0167 2.31115Z" fill="#15587E"/>
<path id="Star 3" d="M71.8614 2.31115C72.1283 1.54708 73.2088 1.54708 73.4757 2.31115L75.4878 8.07265C75.6055 8.40983 75.9205 8.63829 76.2775 8.64553L82.3964 8.76964C83.2078 8.7861 83.5419 9.81796 82.8941 10.3068L78.0237 13.982C77.7374 14.1981 77.6164 14.5699 77.7207 14.9131L79.492 20.7405C79.7276 21.5156 78.8533 22.1532 78.1872 21.6919L73.1553 18.2068C72.8625 18.0039 72.4746 18.0039 72.1818 18.2068L67.1499 21.6919C66.4839 22.1532 65.6095 21.5156 65.8451 20.7405L67.6164 14.9131C67.7207 14.5699 67.5997 14.1981 67.3134 13.982L62.4431 10.3068C61.7952 9.81796 62.1293 8.7861 62.9407 8.76964L69.0596 8.64553C69.4167 8.63829 69.7316 8.40984 69.8494 8.07265L71.8614 2.31115Z" fill="#15587E"/>
<path id="Star 2" d="M41.9396 2.31115C42.2064 1.54708 43.287 1.54708 43.5538 2.31115L45.5659 8.07265C45.6836 8.40983 45.9986 8.63829 46.3557 8.64553L52.4746 8.76964C53.286 8.7861 53.62 9.81796 52.9722 10.3068L48.1018 13.982C47.8155 14.1981 47.6945 14.5699 47.7988 14.9131L49.5701 20.7405C49.8057 21.5156 48.9314 22.1532 48.2654 21.6919L43.2335 18.2068C42.9406 18.0039 42.5527 18.0039 42.2599 18.2068L37.228 21.6919C36.562 22.1532 35.6876 21.5156 35.9233 20.7405L37.6945 14.9131C37.7989 14.5699 37.6779 14.1981 37.3915 13.982L32.5212 10.3068C31.8734 9.81796 32.2074 8.7861 33.0188 8.76964L39.1377 8.64553C39.4948 8.63829 39.8097 8.40984 39.9275 8.07265L41.9396 2.31115Z" fill="#15587E"/>
<path id="Star 4" d="M101.784 2.31115C102.051 1.54708 103.131 1.54708 103.398 2.31115L105.41 8.07265C105.528 8.40983 105.843 8.63829 106.2 8.64553L112.319 8.76964C113.13 8.7861 113.464 9.81796 112.816 10.3068L107.946 13.982C107.66 14.1981 107.539 14.5699 107.643 14.9131L109.414 20.7405C109.65 21.5156 108.776 22.1532 108.11 21.6919L103.078 18.2068C102.785 18.0039 102.397 18.0039 102.104 18.2068L97.0723 21.6919C96.4062 22.1532 95.5319 21.5156 95.7675 20.7405L97.5388 14.9131C97.6431 14.5699 97.5221 14.1981 97.2358 13.982L92.3654 10.3068C91.7176 9.81796 92.0516 8.7861 92.8631 8.76964L98.9819 8.64553C99.339 8.63829 99.654 8.40984 99.7717 8.07265L101.784 2.31115Z" fill="#15587E"/>
<path id="Star 5" d="M131.706 2.31115C131.973 1.54708 133.053 1.54708 133.32 2.31115L135.332 8.07265C135.45 8.40983 135.765 8.63829 136.122 8.64553L142.241 8.76964C143.052 8.7861 143.386 9.81796 142.738 10.3068L137.868 13.982C137.582 14.1981 137.461 14.5699 137.565 14.9131L139.336 20.7405C139.572 21.5156 138.698 22.1532 138.031 21.6919L133 18.2068C132.707 18.0039 132.319 18.0039 132.026 18.2068L126.994 21.6919C126.328 22.1532 125.454 21.5156 125.689 20.7405L127.461 14.9131C127.565 14.5699 127.444 14.1981 127.158 13.982L122.287 10.3068C121.639 9.81796 121.974 8.7861 122.785 8.76964L128.904 8.64553C129.261 8.63829 129.576 8.40984 129.694 8.07265L131.706 2.31115Z" fill="#15587E" fill-opacity="0.3"/>
</g>
</svg>
