<svg width="98" height="77" viewBox="0 0 98 77" fill="none" xmlns="http://www.w3.org/2000/svg">
<g id="Group 45">
<path id="Vector" d="M23.9109 36.4904C20.3867 36.5023 16.9249 37.4226 13.8586 39.1627C18.1756 27.9699 25.3357 18.1002 34.6302 10.5304C35.1619 10.0917 35.6023 9.55243 35.926 8.94331C36.2497 8.33418 36.4505 7.66716 36.5168 6.98031C36.5832 6.29347 36.5138 5.60025 36.3127 4.94026C36.1116 4.28026 35.7827 3.6664 35.3448 3.13373C34.9068 2.60105 34.3684 2.15999 33.7603 1.83574C33.1522 1.51149 32.4863 1.31039 31.8006 1.24392C31.1149 1.17745 30.4228 1.24692 29.7639 1.44835C29.105 1.64979 28.4922 1.97924 27.9604 2.41792C8.90395 17.9271 0.423828 39.4013 0.423828 52.7153C0.456663 57.4229 1.85721 62.0191 4.45446 65.9426C7.05171 69.8662 10.7333 72.9473 15.0497 74.8099C17.8431 76.1654 20.9023 76.8826 24.0062 76.9096C26.7382 77.0426 29.4688 76.6185 32.0322 75.6629C34.5957 74.7073 36.9388 73.2401 38.9193 71.3504C40.8998 69.4607 42.4765 67.1878 43.5539 64.6694C44.6312 62.1511 45.1867 59.4398 45.1867 56.7C45.1867 53.9602 44.6312 51.2489 43.5539 48.7306C42.4765 46.2122 40.8998 43.9393 38.9193 42.0496C36.9388 40.1598 34.5957 38.6927 32.0322 37.7371C29.4688 36.7815 26.7382 36.3573 24.0062 36.4904H23.9109Z" fill="#3BA1C9"/>
<path id="Vector_2" d="M76.0778 36.3455C72.5886 36.3531 69.1606 37.2792 66.1269 39.0337C70.3987 27.786 77.4678 17.8609 86.6417 10.2309C87.2159 9.80963 87.6994 9.27317 88.0623 8.65458C88.4252 8.03599 88.6599 7.34834 88.7519 6.63397C88.844 5.91959 88.7914 5.1936 88.5975 4.50067C88.4036 3.80773 88.0724 3.16253 87.6244 2.60475C87.1763 2.04697 86.6209 1.58842 85.9922 1.25733C85.3636 0.926234 84.675 0.729599 83.9689 0.67952C83.2628 0.62944 82.5541 0.726977 81.8864 0.966131C81.2187 1.20528 80.6061 1.58099 80.0864 2.07013C61.2222 17.6716 52.8276 39.2738 52.8276 52.6671C52.85 57.349 54.196 61.9255 56.7048 65.8498C59.2137 69.774 62.7793 72.8802 66.9758 74.7972C69.8111 76.2007 72.925 76.9233 76.0778 76.9094C78.7822 77.0432 81.4852 76.6165 84.0229 75.6552C86.5605 74.694 88.8799 73.2181 90.8404 71.3171C92.8009 69.4161 94.3618 67.1296 95.4282 64.5963C96.4947 62.063 97.0446 59.3356 97.0446 56.5794C97.0446 53.8233 96.4947 51.0959 95.4282 48.5625C94.3618 46.0292 92.8009 43.7427 90.8404 41.8418C88.8799 39.9408 86.5605 38.4649 84.0229 37.5036C81.4852 36.5423 78.7822 36.1157 76.0778 36.2495V36.3455Z" fill="#3BA1C9"/>
</g>
</svg>
