<svg width="144" height="25" viewBox="0 0 144 25" fill="none" xmlns="http://www.w3.org/2000/svg">
<g id="Group 23575">
<path id="Star 1" d="M11.8993 2.28143C12.1679 1.52128 13.2429 1.52128 13.5115 2.28143L15.4956 7.89684C15.6142 8.23258 15.9285 8.45964 16.2845 8.46678L22.2976 8.58733C23.1115 8.60365 23.4442 9.64066 22.7916 10.1274L18.0222 13.6847C17.7325 13.9008 17.6099 14.2758 17.7162 14.6213L19.4544 20.2735C19.6922 21.047 18.822 21.6874 18.1543 21.2302L13.1883 17.8306C12.8972 17.6313 12.5136 17.6313 12.2225 17.8306L7.25653 21.2302C6.58877 21.6874 5.71856 21.047 5.95643 20.2735L7.6946 14.6213C7.80085 14.2758 7.67833 13.9008 7.38859 13.6847L2.61919 10.1274C1.96663 9.64066 2.29928 8.60365 3.1132 8.58733L9.1263 8.46678C9.48231 8.45964 9.79662 8.23258 9.91525 7.89684L11.8993 2.28143Z" fill="#15587E"/>
<path id="Star 3" d="M71.1933 2.28143C71.4618 1.52128 72.5369 1.52128 72.8054 2.28143L74.7895 7.89684C74.9081 8.23258 75.2224 8.45964 75.5784 8.46678L81.5916 8.58733C82.4055 8.60365 82.7381 9.64066 82.0856 10.1274L77.3162 13.6847C77.0264 13.9008 76.9039 14.2758 77.0101 14.6213L78.7483 20.2735C78.9862 21.047 78.116 21.6874 77.4482 21.2302L72.4823 17.8306C72.1912 17.6313 71.8075 17.6313 71.5164 17.8306L66.5505 21.2302C65.8827 21.6874 65.0125 21.047 65.2504 20.2735L66.9886 14.6213C67.0948 14.2758 66.9723 13.9008 66.6825 13.6847L61.9131 10.1274C61.2606 9.64066 61.5932 8.60365 62.4071 8.58733L68.4202 8.46678C68.7763 8.45964 69.0906 8.23258 69.2092 7.89684L71.1933 2.28143Z" fill="#15587E"/>
<path id="Star 2" d="M41.5458 2.28143C41.8144 1.52128 42.8894 1.52128 43.158 2.28143L45.142 7.89684C45.2607 8.23258 45.575 8.45964 45.931 8.46678L51.9441 8.58733C52.758 8.60365 53.0907 9.64066 52.4381 10.1274L47.6687 13.6847C47.379 13.9008 47.2564 14.2758 47.3627 14.6213L49.1009 20.2735C49.3387 21.047 48.4685 21.6874 47.8008 21.2302L42.8348 17.8306C42.5437 17.6313 42.1601 17.6313 41.8689 17.8306L36.903 21.2302C36.2352 21.6874 35.365 21.047 35.6029 20.2735L37.3411 14.6213C37.4473 14.2758 37.3248 13.9008 37.0351 13.6847L32.2657 10.1274C31.6131 9.64066 31.9458 8.60365 32.7597 8.58733L38.7728 8.46678C39.1288 8.45964 39.4431 8.23258 39.5617 7.89684L41.5458 2.28143Z" fill="#15587E"/>
<path id="Star 4" d="M100.84 2.28143C101.108 1.52128 102.183 1.52128 102.452 2.28143L104.436 7.89684C104.555 8.23258 104.869 8.45964 105.225 8.46678L111.238 8.58733C112.052 8.60365 112.385 9.64066 111.732 10.1274L106.963 13.6847C106.673 13.9008 106.55 14.2758 106.657 14.6213L108.395 20.2735C108.633 21.047 107.762 21.6874 107.095 21.2302L102.129 17.8306C101.838 17.6313 101.454 17.6313 101.163 17.8306L96.197 21.2302C95.5292 21.6874 94.659 21.047 94.8969 20.2735L96.635 14.6213C96.7413 14.2758 96.6188 13.9008 96.329 13.6847L91.5596 10.1274C90.9071 9.64066 91.2397 8.60365 92.0536 8.58733L98.0667 8.46678C98.4227 8.45964 98.7371 8.23258 98.8557 7.89684L100.84 2.28143Z" fill="#15587E"/>
<path id="Star 5" d="M130.487 2.28143C130.756 1.52128 131.831 1.52128 132.099 2.28143L134.083 7.89684C134.202 8.23258 134.516 8.45964 134.872 8.46678L140.885 8.58733C141.699 8.60365 142.032 9.64066 141.379 10.1274L136.61 13.6847C136.32 13.9008 136.198 14.2758 136.304 14.6213L138.042 20.2735C138.28 21.047 137.41 21.6874 136.742 21.2302L131.776 17.8306C131.485 17.6313 131.101 17.6313 130.81 17.8306L125.844 21.2302C125.177 21.6874 124.306 21.047 124.544 20.2735L126.282 14.6213C126.389 14.2758 126.266 13.9008 125.976 13.6847L121.207 10.1274C120.555 9.64066 120.887 8.60365 121.701 8.58733L127.714 8.46678C128.07 8.45964 128.385 8.23258 128.503 7.89684L130.487 2.28143Z" fill="#15587E"/>
</g>
</svg>
