<svg width="82" height="65" viewBox="0 0 82 65" fill="none" xmlns="http://www.w3.org/2000/svg">
<g id="Group 45">
<path id="Vector" d="M19.8284 30.862C16.8709 30.872 13.9658 31.6457 11.3926 33.1086C15.0154 23.6991 21.0241 15.4019 28.824 9.03814C29.2702 8.66935 29.6397 8.21599 29.9114 7.70391C30.1831 7.19183 30.3515 6.63108 30.4072 6.05367C30.4629 5.47626 30.4047 4.89349 30.236 4.33865C30.0672 3.78381 29.7912 3.26775 29.4237 2.81995C29.0561 2.37214 28.6043 2.00136 28.094 1.72876C27.5837 1.45617 27.0248 1.28711 26.4494 1.23123C25.874 1.17536 25.2932 1.23376 24.7402 1.4031C24.1873 1.57244 23.673 1.8494 23.2267 2.21818C7.23464 15.2563 0.118164 33.3091 0.118164 44.5019C0.145719 48.4594 1.32105 52.3233 3.50065 55.6217C5.68025 58.9202 8.7698 61.5104 12.3921 63.0762C14.7364 64.2158 17.3036 64.8187 19.9084 64.8414C22.2011 64.9532 24.4925 64.5966 26.6438 63.7933C28.7951 62.9899 30.7613 61.7566 32.4234 60.1679C34.0854 58.5793 35.4086 56.6685 36.3127 54.5514C37.2168 52.4343 37.683 50.155 37.683 47.8517C37.683 45.5484 37.2168 43.2691 36.3127 41.152C35.4086 39.0349 34.0854 37.1241 32.4234 35.5355C30.7613 33.9468 28.7951 32.7134 26.6438 31.9101C24.4925 31.1067 22.2011 30.7502 19.9084 30.862H19.8284Z" fill="#15587E"/>
<path id="Vector_2" d="M63.6071 30.7402C60.679 30.7467 57.8023 31.5252 55.2564 33.0002C58.8412 23.5446 64.7736 15.2008 72.4723 8.78645C72.9542 8.43227 73.3599 7.98129 73.6644 7.46125C73.969 6.94122 74.1659 6.36314 74.2432 5.76258C74.3204 5.16202 74.2763 4.5517 74.1136 3.96917C73.9509 3.38664 73.673 2.84423 73.297 2.37532C72.921 1.90641 72.4548 1.52092 71.9273 1.24258C71.3997 0.964237 70.8219 0.798931 70.2293 0.756831C69.6367 0.71473 69.042 0.796727 68.4816 0.997777C67.9213 1.19883 67.4073 1.51468 66.9711 1.92588C51.1404 15.0417 44.0957 33.202 44.0957 44.4614C44.1145 48.3974 45.244 52.2447 47.3494 55.5437C49.4548 58.8428 52.4471 61.454 55.9688 63.0656C58.3482 64.2455 60.9613 64.8529 63.6071 64.8413C65.8767 64.9538 68.145 64.5951 70.2746 63.7869C72.4042 62.9788 74.3506 61.7381 75.9958 60.14C77.6411 58.5419 78.951 56.6197 79.8459 54.49C80.7409 52.3603 81.2024 50.0674 81.2024 47.7504C81.2024 45.4334 80.7409 43.1405 79.8459 41.0108C78.951 38.8811 77.6411 36.9589 75.9958 35.3608C74.3506 33.7627 72.4042 32.522 70.2746 31.7139C68.145 30.9057 65.8767 30.547 63.6071 30.6595V30.7402Z" fill="#15587E"/>
</g>
</svg>
