<svg width="30" height="30" viewBox="0 0 30 30" fill="none" xmlns="http://www.w3.org/2000/svg">
<path id="tik tok" d="M30 12.3025C27.051 12.3087 24.1744 11.504 21.7764 10.0021V20.4767C21.7756 22.4167 21.0979 24.3102 19.8339 25.9041C18.57 27.498 16.78 28.7163 14.7033 29.396C12.6267 30.0758 10.3623 30.1846 8.21306 29.708C6.0638 29.2313 4.13208 28.1919 2.67619 26.7288C1.22029 25.2656 0.309628 23.4484 0.0659603 21.5201C-0.177707 19.5919 0.257237 17.6445 1.31263 15.9384C2.36803 14.2323 3.99358 12.8487 5.97191 11.9728C7.95024 11.0968 10.1871 10.7702 12.3833 11.0366V16.3049C11.3783 16.0283 10.2991 16.0366 9.29985 16.3287C8.30059 16.6208 7.43236 17.1816 6.81914 17.9312C6.20592 18.6808 5.87908 19.5807 5.88528 20.5025C5.89149 21.4243 6.23043 22.3208 6.85369 23.064C7.47696 23.8072 8.35268 24.3591 9.35581 24.6409C10.3589 24.9226 11.4381 24.9198 12.4393 24.6329C13.4405 24.3459 14.3125 23.7895 14.9308 23.0431C15.549 22.2967 15.8819 21.3985 15.8818 20.4767V0H21.7764C21.7723 0.435544 21.814 0.870494 21.901 1.29935C22.1058 2.25671 22.5317 3.16745 23.1526 3.97585C23.7735 4.78425 24.5764 5.47333 25.5121 6.00093C26.8433 6.7711 28.4041 7.1816 30 7.18131V12.3025Z" fill="#3BA1C9"/>
</svg>
