<svg width="18" height="18" viewBox="0 0 18 18" fill="none" xmlns="http://www.w3.org/2000/svg">
<path id="&#194;&#169;" d="M0 9C0 14.2732 3.683 18 9.02594 18C14.3429 18 18 14.2732 18 9C18 3.72676 14.3429 0 9.02594 0C3.683 0 0 3.72676 0 9ZM16.8847 9C16.8847 13.7408 13.8501 17.0113 9.02594 17.0113C4.14986 17.0113 1.11527 13.7408 1.11527 9C1.11527 4.2338 4.14986 1.01409 9.02594 1.01409C13.8501 1.01409 16.8847 4.2338 16.8847 9ZM14.2911 6.89578H12.1124C11.6715 5.52676 10.4524 4.79155 8.97406 4.79155C7.00288 4.79155 5.44669 6.21127 5.44669 9C5.44669 11.7634 7.00288 13.1831 8.97406 13.1831C10.5821 13.1831 11.6196 12.4225 12.1124 11.0789H14.2911C13.6167 13.3606 11.5937 14.8563 8.97406 14.8563C5.86167 14.8563 3.34582 12.6254 3.34582 8.97465C3.34582 5.32394 5.86167 3.11831 8.97406 3.11831C11.5937 3.11831 13.6167 4.48732 14.2911 6.89578Z" fill="white"/>
</svg>
